<svg xmlns="http://www.w3.org/2000/svg" viewBox="0 0 64 64" width="64" height="64">
  <title>Mantenimiento</title>
  <path fill="#333333" d="M61.4,11.3L52.7,2.6c-2-2-5.1-2-7.1,0L32,16.2L18.4,2.6c-2-2-5.1-2-7.1,0l-8.7,8.7c-2,2-2,5.1,0,7.1L16.2,32
 L2.6,45.6c-2,2-2,5.1,0,7.1l8.7,8.7c2,2,5.1,2,7.1,0L32,47.8l13.6,13.6c2,2,5.1,2,7.1,0l8.7-8.7c2-2,2-5.1,0-7.1L47.8,32
 l13.6-13.6C63.4,16.4,63.4,13.2,61.4,11.3z M46.4,7.6c1.4,0,2.5,1.1,2.5,2.5s-1.1,2.5-2.5,2.5s-2.5-1.1-2.5-2.5S45,7.6,46.4,7.6z
  M11.3,42.8L21.2,33l9.9,9.9L21.2,52.7L11.3,42.8z M7.6,17.7c-1.4,0-2.5-1.1-2.5-2.5s1.1-2.5,2.5-2.5s2.5,1.1,2.5,2.5
 S9,17.7,7.6,17.7z M56.4,56.4c-1.4,0-2.5-1.1-2.5-2.5s1.1-2.5,2.5-2.5s2.5,1.1,2.5,2.5S57.8,56.4,56.4,56.4z"/>
</svg>